HIERARCHY
ROOT Hips
{
	OFFSET 0.000000 0.000000 0.000000 
	CHANNELS 6 Xposition Yposition Zposition Zrotation Yrotation Xrotation
	JOINT LeftUpLeg
	{
		OFFSET 1.363060 -1.794630 0.839290 
		CHANNELS 3 Zrotation Yrotation Xrotation
		JOINT LeftLeg
		{
			OFFSET 2.448110 -6.726130 0.000000 
			CHANNELS 3 Zrotation Yrotation Xrotation
			JOINT LeftFoot
			{
				OFFSET 2.562200 -7.039590 0.000000 
				CHANNELS 3 Zrotation Yrotation Xrotation
				JOINT LeftToeBase
				{
					OFFSET 0.157640 -0.433110 2.322550 
					CHANNELS 3 Zrotation Yrotation Xrotation
					End Site
					{
						OFFSET 0.000000 0.000000 0.000000 
					}
				}
			}
		}
	}
	JOINT RightUpLeg
	{
		OFFSET -1.305520 -1.794630 0.839290 
		CHANNELS 3 Zrotation Yrotation Xrotation
		JOINT RightLeg
		{
			OFFSET -2.542530 -6.985550 0.000000 
			CHANNELS 3 Zrotation Yrotation Xrotation
			JOINT RightFoot
			{
				OFFSET -2.568260 -7.056230 0.000000 
				CHANNELS 3 Zrotation Yrotation Xrotation
				JOINT RightToeBase
				{
					OFFSET -0.164730 -0.452590 2.363150 
					CHANNELS 3 Zrotation Yrotation Xrotation
					End Site
					{
						OFFSET 0.000000 0.000000 0.000000 
					}
				}
			}
		}
	}
	JOINT Spine
	{
		OFFSET 0.028270 2.035590 -0.193380 
		CHANNELS 3 Zrotation Yrotation Xrotation
		JOINT Spine1
		{
			OFFSET 0.056720 2.048850 -0.042750 
			CHANNELS 3 Zrotation Yrotation Xrotation
			JOINT Neck1
			{
				OFFSET -0.054170 1.746240 0.172020 
				CHANNELS 3 Zrotation Yrotation Xrotation
				JOINT Head
				{
					OFFSET 0.104070 1.761360 -0.123970 
					CHANNELS 3 Zrotation Yrotation Xrotation
					End Site
					{
						OFFSET 0.000000 0.000000 0.000000 
					}
				}
			}
			JOINT LeftArm
			{
				OFFSET 3.362410 1.200890 -0.311210 
				CHANNELS 3 Zrotation Yrotation Xrotation
				JOINT LeftForeArm
				{
					OFFSET 4.983000 -0.000000 -0.000000 
					CHANNELS 3 Zrotation Yrotation Xrotation
					JOINT LeftHand
					{
						OFFSET 3.483560 -0.000000 -0.000000 
						CHANNELS 3 Zrotation Yrotation Xrotation
						JOINT LeftHandIndex1
						{
							OFFSET 0.715260 -0.000000 -0.000000 
							CHANNELS 3 Zrotation Yrotation Xrotation
							End Site
							{
								OFFSET 0.000000 0.000000 0.000000 
							}
						}
					}
				}
			}
			JOINT RightArm
			{
				OFFSET -3.136600 1.374050 -0.404650 
				CHANNELS 3 Zrotation Yrotation Xrotation
				JOINT RightForeArm
				{
					OFFSET -5.241900 -0.000000 -0.000000 
					CHANNELS 3 Zrotation Yrotation Xrotation
					JOINT RightHand
					{
						OFFSET -3.444170 -0.000000 -0.000000 
						CHANNELS 3 Zrotation Yrotation Xrotation
						JOINT RightHandIndex1
						{
							OFFSET -0.622530 -0.000000 -0.000000 
							CHANNELS 3 Zrotation Yrotation Xrotation
							End Site
							{
								OFFSET 0.000000 0.000000 0.000000 
							}
						}
					}
				}
			}
		}
	}
}
MOTION
Frames: 7
Frame Time: 0.041667
3.093402 18.077361 -0.807998 -0.885193 -33.097583 0.573779 -15.043282 -6.682262 -7.623403 0.477955 7.124113 24.418585 -1.538529 7.598859 -9.953392 0.006700 0.527600 1.449800 9.592822 19.067188 -16.721451 -3.726364 -10.376566 34.853580 3.642174 -12.833811 -1.458893 -0.098000 2.019200 -5.558800 -5.875127 -0.179270 6.997464 3.510443 0.247718 -5.504128 9.340332 -4.544504 9.803980 3.883200 -2.043900 3.604100 -74.425862 1.767633 61.692525 19.066958 -28.656562 -6.247916 0.355941 -0.670156 1.844192 0.000000 0.000000 0.000000 68.598150 -9.494571 29.798730 -20.030026 27.637363 -7.641923 -1.180294 0.479555 13.210490 7.125000 0.000000 0.000000 
3.063880 18.078342 -0.790441 -0.824106 -33.105967 0.544131 -15.047871 -6.664422 -7.482416 0.459320 7.089689 24.319823 -1.554003 7.656068 -10.020381 0.004100 0.411100 1.129700 9.357017 19.047103 -16.851444 -3.639991 -10.297219 34.517754 3.567582 -12.611220 -1.352807 -0.079800 1.822300 -5.014800 -5.854509 -0.265217 7.041989 3.398105 0.193909 -5.408674 9.241251 -4.390461 9.612695 3.849900 -1.972600 3.546600 -74.234033 1.683487 61.710970 19.243898 -28.883205 -6.349354 0.356695 -0.672977 1.850773 0.000000 0.000000 0.000000 67.844427 -9.421646 29.764227 -21.416003 29.381280 -8.676172 -1.324898 0.497165 13.315497 7.125000 0.000000 0.000000 
3.031218 18.077165 -0.773865 -0.736081 -33.148762 0.505712 -15.064240 -6.761289 -7.286139 0.433223 7.044707 24.193148 -1.550835 7.674761 -10.172305 0.005300 0.469200 1.289200 9.098497 19.123165 -16.950351 -3.549530 -10.207168 34.145660 3.537488 -12.514272 -1.292880 -0.062500 1.613400 -4.438400 -5.840807 -0.332756 7.113172 3.324198 0.150964 -5.297926 9.190173 -4.237231 9.463714 3.826200 -1.896300 3.515100 -73.930427 1.558668 61.870165 19.471935 -29.173522 -6.481998 0.357617 -0.676477 1.748451 0.000000 0.000000 0.000000 67.031996 -9.258440 29.585719 -22.920529 31.146957 -9.803952 -1.409096 0.548880 13.554610 7.125000 0.000000 0.000000 
2.996596 18.072260 -0.753563 -0.723605 -33.310929 0.436294 -15.046706 -6.693786 -7.064279 0.408274 7.000014 24.057723 -1.616348 7.888602 -10.296941 0.001700 0.269100 0.739300 8.926864 19.282481 -16.938081 -3.462635 -10.106247 33.757092 3.548290 -12.532159 -1.123741 -0.077400 1.794500 -4.938100 -5.764033 -0.294572 7.212405 3.198150 0.157924 -5.185510 9.299736 -4.144721 9.178298 3.851600 -1.852000 3.436400 -73.629130 1.447952 62.151687 19.697974 -29.458200 -6.614039 0.358528 -0.679888 1.700230 0.000000 0.000000 0.000000 66.202701 -9.142831 29.077817 -24.615791 33.009501 -11.107522 -1.474416 0.537522 13.869798 7.125000 0.000000 0.000000 
2.962169 18.070299 -0.735417 -0.719261 -33.413973 0.403656 -14.993615 -6.451102 -6.941112 0.382485 6.951541 23.901068 -1.665839 8.021585 -10.236605 0.000100 -0.056200 -0.154500 8.762257 19.367614 -16.994256 -3.379809 -10.010357 33.366038 3.592655 -12.652544 -0.841383 -0.102200 2.061200 -5.674800 -5.580002 -0.335014 7.137225 3.096277 0.136837 -5.176221 9.602711 -4.009034 9.054164 3.949000 -1.782400 3.387100 -73.525269 1.508014 62.001032 19.863752 -29.669485 -6.712382 0.359097 -0.682681 1.837009 0.000000 0.000000 0.000000 65.244005 -9.082885 28.636487 -26.576325 35.005247 -12.646261 -1.508337 0.556729 14.195388 7.125000 0.000000 0.000000 
2.928036 18.071083 -0.719332 -0.591878 -33.441593 0.283173 -15.023789 -6.478114 -6.690987 0.352483 6.896147 23.742957 -1.657216 8.015056 -10.331940 -0.000000 -0.003300 -0.009100 8.474216 19.424591 -17.050632 -3.293608 -9.919188 32.977893 3.608965 -12.693405 -0.660881 -0.104600 2.085600 -5.742100 -5.472555 -0.419151 7.156456 3.054548 0.090556 -5.140097 9.598762 -3.896380 8.706612 3.945700 -1.734300 3.281500 -73.472596 1.524453 61.804346 20.121332 -29.877735 -6.573307 0.476322 -2.014554 2.456523 -7.125000 0.000000 0.000000 64.249591 -8.889409 28.110603 -28.807366 37.067883 -14.423968 -1.503162 0.609654 14.595594 7.125000 0.000000 0.000000 
2.892727 18.071182 -0.702070 -0.451392 -33.624407 0.182027 -15.092693 -6.594647 -6.390605 0.311253 6.824255 23.541670 -1.661144 8.082844 -10.620941 0.001000 0.202200 0.555600 8.156494 19.719866 -17.108445 -3.220161 -9.831662 32.623946 3.649695 -12.799635 -0.542484 -0.097200 2.010900 -5.535900 -5.504762 -0.418104 7.267003 2.972572 0.078290 -5.016052 9.320972 -3.836091 8.371650 3.841700 -1.714200 3.193900 -73.266026 1.454042 61.613573 20.278222 -30.075966 -6.715814 0.963554 -2.013076 2.775789 -7.125000 0.000000 0.000000 63.325107 -8.568888 27.327579 -31.270662 39.123979 -16.425224 -1.448507 0.651647 15.096547 7.125000 0.000000 0.000000 
